<?xml version="1.0" encoding="utf-8"?>
<!-- Generator: Adobe Illustrator 27.5.0, SVG Export Plug-In . SVG Version: 6.00 Build 0)  -->
<svg version="1.1" xmlns="http://www.w3.org/2000/svg" xmlns:xlink="http://www.w3.org/1999/xlink" x="0px" y="0px"
	 viewBox="0 0 3710 3710" style="enable-background:new 0 0 3710 3710;" xml:space="preserve">
<g id="Background">
	<g>
		<g>
			<rect style="fill:#FFFFFF;" width="3710" height="3710"/>
		</g>
	</g>
</g>
<g id="Illustration">
	<g>
		<linearGradient id="SVGID_1_" gradientUnits="userSpaceOnUse" x1="3395.3604" y1="3520.1372" x2="1554.1571" y2="1560.1473">
			<stop  offset="0" style="stop-color:#DAE3FE"/>
			<stop  offset="1" style="stop-color:#E9EFFD"/>
		</linearGradient>
		<path style="fill:url(#SVGID_1_);" d="M2840.968,2735.275c-67.969,70.061-128.786,111.245-175.35,142.336
			c-454.125,303.223-974.832,267.234-1135.329,237.362c-258.943-48.195-475.934-133.601-663.736-303.272
			c-426.743-385.546-405.987-1189.823-79.903-1688.038c38.664-59.074,364.254-541.7,884.492-609.706
			c12.724-1.663,22.218-2.611,30.534-3.491c80.48-8.521,579.196-53.493,985.849,287.201
			c58.211,48.768,161.805,130.811,238.757,270.898C3201.692,1569.931,3244.922,2318.895,2840.968,2735.275z"/>
		<g>
			
				<linearGradient id="SVGID_00000148654362877507346050000010686441145642154624_" gradientUnits="userSpaceOnUse" x1="1412.4552" y1="423.7038" x2="1529.2175" y2="1606.5657">
				<stop  offset="0" style="stop-color:#4F52FF"/>
				<stop  offset="1" style="stop-color:#4042E2"/>
			</linearGradient>
			<path style="fill:url(#SVGID_00000148654362877507346050000010686441145642154624_);" d="M1619.457,1681.768
				c59.903-128.637,173.61-226.303,307.237-241.432l-13.329-576.853c-383.972,0.409-888.471,500.915-855.505,595.254
				L1619.457,1681.768z"/>
		</g>
		<g>
			
				<linearGradient id="SVGID_00000003791106540639567540000001530663456864435360_" gradientUnits="userSpaceOnUse" x1="1124.1224" y1="1801.0851" x2="2695.1316" y2="1095.5992">
				<stop  offset="0" style="stop-color:#E1473D"/>
				<stop  offset="1" style="stop-color:#E9605A"/>
			</linearGradient>
			<path style="fill:url(#SVGID_00000003791106540639567540000001530663456864435360_);" d="M1992.893,1436.948
				c175.72,49.589,309.692,126.923,346.923,360.461l837.728,23.303c0.002-0.002,0.003-0.003,0.006-0.005
				c0.565-687.816-924.552-1426.291-1163.544-1360.853c-4.41,1.207-7.441,5.252-7.513,9.823L1992.893,1436.948z"/>
		</g>
		<g>
			
				<linearGradient id="SVGID_00000043422980215500829710000003374843335087943600_" gradientUnits="userSpaceOnUse" x1="1034.2882" y1="2000.4879" x2="1971.6742" y2="778.2975">
				<stop  offset="0" style="stop-color:#4F52FF"/>
				<stop  offset="1" style="stop-color:#4042E2"/>
			</linearGradient>
			<path style="fill:url(#SVGID_00000043422980215500829710000003374843335087943600_);" d="M1615.854,1644.737
				c61.851-120.146,176.895-204.849,310.522-219.979l9.141-578.503c0.078-4.94-3.934-9.011-8.875-8.958
				c-376.895,4.083-709.461,238.658-864.669,586.112c-2.258,5.054,0.239,10.984,5.414,12.95L1615.854,1644.737z"/>
			
				<linearGradient id="SVGID_00000045617494653320908600000015758285899608094911_" gradientUnits="userSpaceOnUse" x1="3067.4351" y1="1506.2924" x2="2118.0996" y2="2491.166">
				<stop  offset="0" style="stop-color:#FF928E"/>
				<stop  offset="1" style="stop-color:#FE7062"/>
			</linearGradient>
			<path style="fill:url(#SVGID_00000045617494653320908600000015758285899608094911_);" d="M2360.599,1921.898
				c-7.735-0.208-14.661,4.719-16.972,12.104c-6.472,20.684-18.301,60.369-20.238,65.388c-9.422,24.412-20.458,48.225-33.386,70.985
				c-23.974,42.209-54.633,80.894-92.459,111.525c-95.869,77.634-233.685,92.056-348.637,53.634
				c-3.276-1.095-6.524-2.273-9.759-3.483c-5.989-2.24-12.709,0.246-15.783,5.852l-289.852,528.594
				c140.748,70.58,273.197,89.037,439.369,78.387c482.793-30.941,861.904-422.947,903.982-909.07L2360.599,1921.898z"/>
			
				<linearGradient id="SVGID_00000068664914622128462250000009475882354321948337_" gradientUnits="userSpaceOnUse" x1="2182.0474" y1="438.5901" x2="2218.1272" y2="4461.8843">
				<stop  offset="0" style="stop-color:#FEBBBA"/>
				<stop  offset="1" style="stop-color:#FF928E"/>
			</linearGradient>
			<path style="fill:url(#SVGID_00000068664914622128462250000009475882354321948337_);" d="M2360.599,1921.898
				c-31.425,192.901-173.985,343.626-367.706,350.203c-54.5,1.851-119.524-10.81-167.328-30.173
				c-4.985-2.019-10.698,0.02-13.401,4.67l-297.931,512.525c140.747,70.58,299.683,105.127,465.855,94.478
				c482.793-30.941,861.904-434.847,903.982-920.971L2360.599,1921.898z"/>
			
				<linearGradient id="SVGID_00000167395745445058776660000009976365560330915204_" gradientUnits="userSpaceOnUse" x1="1069.4481" y1="934.375" x2="1460.3492" y2="2447.217">
				<stop  offset="0" style="stop-color:#4F52FF"/>
				<stop  offset="1" style="stop-color:#4042E2"/>
			</linearGradient>
			<path style="fill:url(#SVGID_00000167395745445058776660000009976365560330915204_);" d="M1452.133,2678.202l288.471-517.403
				c2.043-3.664,1.175-8.237-2.033-10.939c-88.81-74.789-159.809-175.065-159.809-305.098c0-32.071-14.22-78.75-7.706-108.841
				l-542.5-193.988c-30.114,97.957-46.373,202.216-46.373,310.244c0,349.224,185.557,656.369,440.337,832.925
				C1432.479,2692.005,1446.233,2688.785,1452.133,2678.202z"/>
			
				<linearGradient id="SVGID_00000112590156803121692020000016836019333422611631_" gradientUnits="userSpaceOnUse" x1="2506.8462" y1="318.8913" x2="-898.5034" y2="5028.4214">
				<stop  offset="0" style="stop-color:#4F52FF"/>
				<stop  offset="1" style="stop-color:#4042E2"/>
			</linearGradient>
			<path style="fill:url(#SVGID_00000112590156803121692020000016836019333422611631_);" d="M1423.288,2663.5l298.942-511.001
				c3.798-6.492,2.491-14.769-3.157-19.736c-85.754-75.423-140.313-188.798-140.313-316.716c0-32.071,3.464-63.336,9.978-93.427
				l-552.059-206.364c-4.397-1.644-9.297,0.763-10.639,5.261c-28.504,95.539-43.859,196.962-43.859,301.945
				C982.183,2181.181,1158.933,2489.21,1423.288,2663.5z"/>
			<g>
				
					<linearGradient id="SVGID_00000094609870831535014200000005366963223439218848_" gradientUnits="userSpaceOnUse" x1="2972.6387" y1="834.3171" x2="2063.9136" y2="1636.4335">
					<stop  offset="0" style="stop-color:#FF928E"/>
					<stop  offset="1" style="stop-color:#FE7062"/>
				</linearGradient>
				<path style="fill:url(#SVGID_00000094609870831535014200000005366963223439218848_);" d="M2032.133,1427.505
					c171.115,28.621,303.808,172.704,326.286,352.757c1.202,9.63,9.153,16.991,18.853,17.316l827.615,27.736
					c2.573-2.493,3.929-3.808,6.501-6.301C3208.856,1126.667,2712.408,533.511,2047.415,455L2032.133,1427.505z"/>
			</g>
		</g>
		<g>
			<path style="fill:#91B3FA;" d="M1499.449,1246.442l171.721,11.699c8.162,0.706,12.624-9.291,6.649-14.895l-164.671-121.94
				L1499.449,1246.442z"/>
			<path style="fill:#91B3FA;" d="M518.436,696.875l967.107-5.916c22.143-0.136,40.125,16.271,39.957,36.455l-4.07,486.924
				c-0.17,20.299-18.623,36.498-40.883,35.889l-956.636-26.207c-21.25-0.582-38.223-16.323-38.496-35.7l-6.401-454.8
				C478.732,713.452,496.421,697.009,518.436,696.875z"/>
			<path style="opacity:0.23;fill:#FFFFFF;" d="M548.391,726.659l905.598-5.169c20.735-0.118,37.573,14.216,37.415,31.852
				l-3.811,425.432c-0.159,17.735,15.016,42.686-5.828,42.154l-928.247-33.695c-19.898-0.509-35.792-14.261-36.047-31.192
				l-5.994-397.365C511.212,741.143,527.776,726.777,548.391,726.659z"/>
			
				<linearGradient id="SVGID_00000120533076538677278620000017579362050241108127_" gradientUnits="userSpaceOnUse" x1="511.1727" y1="970.5989" x2="1493.3396" y2="970.5989">
				<stop  offset="0" style="stop-color:#DAE3FE"/>
				<stop  offset="1" style="stop-color:#E9EFFD"/>
			</linearGradient>
			<path style="fill:url(#SVGID_00000120533076538677278620000017579362050241108127_);" d="M1481.765,1220.927l-956.891-26.211
				c-4.038-0.107-7.241-3.085-7.3-6.771l-6.4-454.804c-0.032-1.85,0.712-3.544,2.153-4.887c1.435-1.343,3.278-2.055,5.329-2.065
				l967.105-5.917c2.083,0,3.936,0.698,5.382,2.016c1.462,1.338,2.217,3.037,2.196,4.916l-4.07,486.903
				C1489.247,1217.866,1485.879,1220.927,1481.765,1220.927z M525.27,1187.71l956.613,26.202l3.754-486.771l-966.934,6.068
				L525.27,1187.71z"/>
			
				<linearGradient id="SVGID_00000096763746580766073890000014700994817746803843_" gradientUnits="userSpaceOnUse" x1="574.2221" y1="836.7068" x2="1441.6023" y2="836.7068">
				<stop  offset="0" style="stop-color:#DAE3FE"/>
				<stop  offset="1" style="stop-color:#E9EFFD"/>
			</linearGradient>
			<path style="fill:url(#SVGID_00000096763746580766073890000014700994817746803843_);" d="M574.222,836.707
				c0,17.227,10.033,31.193,22.409,31.193h822.562c12.376,0,22.409-13.965,22.409-31.193s-10.033-31.193-22.409-31.193H596.631
				C584.255,805.514,574.222,819.48,574.222,836.707z"/>
			
				<linearGradient id="SVGID_00000152246353734148458880000010588443734373864354_" gradientUnits="userSpaceOnUse" x1="588.8944" y1="939.8022" x2="1420.8475" y2="939.8022">
				<stop  offset="0" style="stop-color:#DAE3FE"/>
				<stop  offset="1" style="stop-color:#E9EFFD"/>
			</linearGradient>
			<path style="fill:url(#SVGID_00000152246353734148458880000010588443734373864354_);" d="M619.275,921.095h771.191
				c16.779,0,30.381,8.376,30.381,18.707c0,10.332-13.602,18.708-30.381,18.708H619.275c-16.779,0-30.381-8.376-30.381-18.707
				C588.894,929.47,602.496,921.095,619.275,921.095z"/>
			
				<linearGradient id="SVGID_00000094592501407639901050000017308306742528461216_" gradientUnits="userSpaceOnUse" x1="588.8944" y1="1019.2405" x2="1420.8475" y2="1019.2405">
				<stop  offset="0" style="stop-color:#DAE3FE"/>
				<stop  offset="1" style="stop-color:#E9EFFD"/>
			</linearGradient>
			<path style="fill:url(#SVGID_00000094592501407639901050000017308306742528461216_);" d="M588.894,1025.012
				c0,10.313,13.577,18.673,30.325,18.673h771.303c16.748,0,30.325-8.36,30.325-18.673v-11.543c0-10.49-14.03-18.922-31.062-18.667
				l-771.303,11.543C602.026,1006.591,588.894,1014.876,588.894,1025.012z"/>
			
				<linearGradient id="SVGID_00000056385181115812218940000013669651495258819748_" gradientUnits="userSpaceOnUse" x1="591.9356" y1="1102.5988" x2="1423.8887" y2="1102.5988">
				<stop  offset="0" style="stop-color:#DAE3FE"/>
				<stop  offset="1" style="stop-color:#E9EFFD"/>
			</linearGradient>
			<path style="fill:url(#SVGID_00000056385181115812218940000013669651495258819748_);" d="M622.317,1083.891h771.191
				c16.779,0,30.381,8.375,30.381,18.707c0,10.332-13.602,18.708-30.381,18.708H622.317c-16.779,0-30.381-8.376-30.381-18.708
				S605.538,1083.891,622.317,1083.891z"/>
		</g>
		<g>
			<path style="fill:#91B3FA;" d="M3208.619,3003.73H2086.394c-12.303,0-22.369-10.066-22.369-22.369v-485.703
				c0-12.303,10.066-22.37,22.369-22.37h1122.226c12.303,0,22.37,10.066,22.37,22.37v485.703
				C3230.989,2993.664,3220.923,3003.73,3208.619,3003.73z"/>
			<path style="fill:#BDD0FB;" d="M3116.154,2620.983h-501.526c-12.363,0-22.478-10.115-22.478-22.478v-9.222
				c0-12.363,10.115-22.478,22.478-22.478h501.526c12.363,0,22.478,10.115,22.478,22.478v9.222
				C3138.632,2610.868,3128.517,2620.983,3116.154,2620.983z"/>
			<path style="fill:#BDD0FB;" d="M3112.589,2754.119h-501.526c-12.363,0-22.478-10.115-22.478-22.478v-9.222
				c0-12.363,10.115-22.478,22.478-22.478h501.526c12.363,0,22.478,10.115,22.478,22.478v9.222
				C3135.067,2744.004,3124.952,2754.119,3112.589,2754.119z"/>
			<path style="fill:#BDD0FB;" d="M3115.662,2896.552h-501.526c-12.363,0-22.478-10.115-22.478-22.478v-9.222
				c0-12.363,10.115-22.478,22.478-22.478h501.526c12.363,0,22.478,10.115,22.478,22.478v9.222
				C3138.139,2886.437,3128.024,2896.552,3115.662,2896.552z"/>
			<g>
				<g>
					
						<linearGradient id="SVGID_00000163792137151641805070000001358879203551150227_" gradientUnits="userSpaceOnUse" x1="-4164.7275" y1="-4656.1719" x2="-4733.3442" y2="-3485.0947" gradientTransform="matrix(-1 0.0013 0.0013 1 -5324.9741 3.598)">
						<stop  offset="0" style="stop-color:#FEBBBA"/>
						<stop  offset="1" style="stop-color:#FF928E"/>
					</linearGradient>
					<path style="fill:url(#SVGID_00000163792137151641805070000001358879203551150227_);" d="M2311.821,2737.017l59.793-208.814
						c1.17-4.084,5.538-6.266,9.551-4.872c90.13,31.302,155.227,114.867,159.16,214.876c0.179,4.562-3.482,8.362-8.047,8.305
						l-215.383-2.675C2313.369,2743.792,2310.85,2740.407,2311.821,2737.017z"/>
				</g>
				<g>
					
						<linearGradient id="SVGID_00000140731672283319215330000013495212633000028843_" gradientUnits="userSpaceOnUse" x1="2320.928" y1="2822.5608" x2="2480.4907" y2="2822.5608">
						<stop  offset="0" style="stop-color:#DAE3FE"/>
						<stop  offset="1" style="stop-color:#E9EFFD"/>
					</linearGradient>
					<path style="fill:url(#SVGID_00000140731672283319215330000013495212633000028843_);" d="M2480.467,2766.804
						c-4.58,45.912-26.224,87.093-58.522,117.013c-3.03,2.807-7.814,2.434-10.339-0.834l-89.706-116.124
						c-2.362-3.057-0.148-7.49,3.715-7.438l149.988,2.013C2478.472,2761.473,2480.751,2763.949,2480.467,2766.804z"/>
					
						<linearGradient id="SVGID_00000085945148657066982160000018135648009972967312_" gradientUnits="userSpaceOnUse" x1="2175.4182" y1="2650.8096" x2="2341.199" y2="2650.8096">
						<stop  offset="0" style="stop-color:#DAE3FE"/>
						<stop  offset="1" style="stop-color:#E9EFFD"/>
					</linearGradient>
					<path style="fill:url(#SVGID_00000085945148657066982160000018135648009972967312_);" d="M2290.041,2731.119
						c-36.222-34.055-78.49-73.877-113.151-106.669c-1.971-1.865-1.966-5.024,0.041-6.851
						c32.487-29.561,75.458-47.811,122.512-48.358c13.051-0.152,25.775,1.067,38.038,3.52c2.671,0.534,4.286,3.284,3.533,5.902
						l-43.266,150.321C2296.777,2732.356,2292.598,2733.523,2290.041,2731.119z"/>
					
						<linearGradient id="SVGID_00000020396533289930484310000008307240603751359421_" gradientUnits="userSpaceOnUse" x1="2116.2676" y1="2743.8447" x2="2282.0352" y2="2743.8447">
						<stop  offset="0" style="stop-color:#DAE3FE"/>
						<stop  offset="1" style="stop-color:#E9EFFD"/>
					</linearGradient>
					<path style="fill:url(#SVGID_00000020396533289930484310000008307240603751359421_);" d="M2278.009,2757.533l-124.911,93.337
						c-3.186,2.381-7.697,1.476-9.803-1.899c-17.139-27.473-27.028-59.984-27.028-94.953c0-43.799,15.51-84.204,41.347-115.993
						c2.493-3.067,7.044-3.422,9.916-0.707c8.89,8.404,18.573,17.548,29.019,27.402c31.96,30.149,64.045,60.327,82.341,77.526
						C2283.423,2746.506,2282.992,2753.81,2278.009,2757.533z"/>
					
						<linearGradient id="SVGID_00000041290466670944400470000003850329969180495523_" gradientUnits="userSpaceOnUse" x1="2159.7029" y1="2851.5249" x2="2291.5107" y2="2851.5249">
						<stop  offset="0" style="stop-color:#DAE3FE"/>
						<stop  offset="1" style="stop-color:#E9EFFD"/>
					</linearGradient>
					<path style="fill:url(#SVGID_00000041290466670944400470000003850329969180495523_);" d="M2291.51,2773.678l-2.494,153.201
						c-0.056,3.44-2.968,6.204-6.399,5.955c-48.191-3.502-91.047-25.762-121.196-59.644c-2.617-2.941-2.202-7.484,0.951-9.842
						l123.678-92.461C2288.323,2769.188,2291.556,2770.841,2291.51,2773.678z"/>
					
						<linearGradient id="SVGID_00000046340554747856239890000005722284605518006165_" gradientUnits="userSpaceOnUse" x1="2304.7004" y1="2855.4985" x2="2401.1416" y2="2855.4985">
						<stop  offset="0" style="stop-color:#DAE3FE"/>
						<stop  offset="1" style="stop-color:#E9EFFD"/>
					</linearGradient>
					<path style="fill:url(#SVGID_00000046340554747856239890000005722284605518006165_);" d="M2311.765,2779.484l88.077,113.973
						c2.166,2.802,1.572,6.898-1.375,8.861c-24.818,16.523-53.833,27.26-85.08,30.189c-4.706,0.441-8.762-3.316-8.685-8.042
						l2.334-143.41C2307.077,2778.56,2310.238,2777.509,2311.765,2779.484z"/>
				</g>
			</g>
		</g>
		<g>
			
				<linearGradient id="SVGID_00000067208506327796412960000005386293990518821791_" gradientUnits="userSpaceOnUse" x1="-2726.4543" y1="1175.5332" x2="-2601.5229" y2="1488.9209" gradientTransform="matrix(-1 0 0 1 -1165.4333 0)">
				<stop  offset="0" style="stop-color:#09005D"/>
				<stop  offset="1" style="stop-color:#1A0F91"/>
			</linearGradient>
			<path style="fill:url(#SVGID_00000067208506327796412960000005386293990518821791_);" d="M1486.944,1344.11
				c0,0-42.118,20.486-49.861,44.02c-6.214,18.883-52.784,21.317-57.385,58.454c-2.375,19.174-16.564,34.53-35.661,37.457
				c-47.564,7.29-120.865,31.99-132.593,114.571c-8.952,63.034,23.182,86.936,56.905,95.209
				c24.769,6.076,41.229,30.168,36.219,55.175c-4.805,23.985,2.361,51.713,43.913,73.638
				c93.116,49.134,186.107-116.402,186.107-116.402l19.057-289.037L1486.944,1344.11z"/>
			
				<linearGradient id="SVGID_00000054969869280888121790000006444533586484628864_" gradientUnits="userSpaceOnUse" x1="-3029.3616" y1="910.3022" x2="-2798.5613" y2="1435.4244" gradientTransform="matrix(-0.9776 -0.2106 -0.2106 0.9776 -915.0133 -113.5247)">
				<stop  offset="0" style="stop-color:#FEBBBA"/>
				<stop  offset="1" style="stop-color:#FF928E"/>
			</linearGradient>
			<path style="fill:url(#SVGID_00000054969869280888121790000006444533586484628864_);" d="M1993.615,1275.589
				c0,0-185.918,294.071-406.998,350.871c0,0,43.078,122.694,76.328,136.736c0,0,271.99-226.944,341.887-445.821L1993.615,1275.589z
				"/>
			
				<linearGradient id="SVGID_00000181067396220891295350000017686630826853438090_" gradientUnits="userSpaceOnUse" x1="-2269.7588" y1="3181.8738" x2="-2163.8218" y2="3181.8738" gradientTransform="matrix(-1 0 0 1 -1165.4333 0)">
				<stop  offset="0" style="stop-color:#09005D"/>
				<stop  offset="1" style="stop-color:#1A0F91"/>
			</linearGradient>
			<path style="fill:url(#SVGID_00000181067396220891295350000017686630826853438090_);" d="M1104.199,3156.467l-6.026,49.535
				c-1.143,9.397-8.542,16.828-17.947,17.902c-15.88,1.814-41.363,3.673-66.295,1.038c-10.944-1.157-18.048-12.239-14.715-22.726
				c6.078-19.123,17.198-47.828,33.229-64.721h54.95C1097.555,3137.495,1105.426,3146.382,1104.199,3156.467z"/>
			
				<linearGradient id="SVGID_00000073686167345418963710000012428510281130357433_" gradientUnits="userSpaceOnUse" x1="-2717.3972" y1="3599.6313" x2="-2564.9463" y2="1817.8589" gradientTransform="matrix(-1 0 0 1 -1165.4333 0)">
				<stop  offset="0" style="stop-color:#FEBBBA"/>
				<stop  offset="1" style="stop-color:#FF928E"/>
			</linearGradient>
			<path style="fill:url(#SVGID_00000073686167345418963710000012428510281130357433_);" d="M1534.587,2576.192l9.275,54.559
				c0,0-31.059,314.604-36.584,440.445c-0.866,19.729,4.238,39.227,14.593,56.043l54.007,87.702l-137.257-80.994l-2.732-16.75
				l22.469-30.894l-29.431-352.434c-1.729-20.704,2.543-41.468,12.306-59.807l28.391-53.335L1534.587,2576.192z"/>
			
				<linearGradient id="SVGID_00000170987681126456190650000006291640961481342104_" gradientUnits="userSpaceOnUse" x1="-2761.9329" y1="3162.5325" x2="-2590.5186" y2="3162.5325" gradientTransform="matrix(-1 0 0 1 -1165.4333 0)">
				<stop  offset="0" style="stop-color:#09005D"/>
				<stop  offset="1" style="stop-color:#1A0F91"/>
			</linearGradient>
			<path style="fill:url(#SVGID_00000170987681126456190650000006291640961481342104_);" d="M1584.917,3227.645h-43.802
				c-8.199,0-15.931-3.764-20.931-10.261c-13.655-17.743-41.946-52.36-55.474-53.263c-18.211-1.216-15.881,63.525-15.881,63.525
				h-10.208l-12.93-80.448c-3.253-20.242,6.813-40.293,24.989-49.777h0c0,0,4.163,30.786,26.735,44.404
				c22.572,13.617,91.854,62.385,91.854,62.385s8.486-1.21,17.802,0.474C1600.892,3207.179,1598.961,3227.645,1584.917,3227.645z"/>
			
				<linearGradient id="SVGID_00000065070137735245142940000009634587885964509339_" gradientUnits="userSpaceOnUse" x1="-2410.7327" y1="3626.1431" x2="-2258.2415" y2="1843.9025" gradientTransform="matrix(-1 0 0 1 -1165.4333 0)">
				<stop  offset="0" style="stop-color:#FEBBBA"/>
				<stop  offset="1" style="stop-color:#FF928E"/>
			</linearGradient>
			<path style="fill:url(#SVGID_00000065070137735245142940000009634587885964509339_);" d="M1346.59,2602.105
				c0,0-181.954,345.15-210.878,423.953c-28.924,78.803-39.056,144.543-39.444,150.768c-0.606,9.728-12.705,19.057-46.055,19.057
				c-17.211,0-25.64-6.899-29.768-13.577c-3.521-5.697-3.703-12.826-0.736-18.831c10.525-21.301,43.927-89.373,56.297-120.247
				c14.77-36.863,46.54-203.917,63.964-262c17.424-58.083,37.118-121.088,112.995-179.123
				C1252.964,2602.105,1305.05,2551.09,1346.59,2602.105z"/>
			
				<linearGradient id="SVGID_00000106114198503007062380000002651793141672405127_" gradientUnits="userSpaceOnUse" x1="1177.2634" y1="2297.5837" x2="1657.8778" y2="1701.8922">
				<stop  offset="0" style="stop-color:#FF928E"/>
				<stop  offset="0.1214" style="stop-color:#FF8E89"/>
				<stop  offset="1" style="stop-color:#FE7062"/>
			</linearGradient>
			<path style="fill:url(#SVGID_00000106114198503007062380000002651793141672405127_);" d="M1461.534,2036.559
				c46.936-198.886-71.967-311.374-71.967-311.374c75.025-72.016,211.721-104.786,211.721-104.786s130.437,95.361,114.963,170.003
				c-9.069,43.747-91.685,262.039-91.685,262.039S1548.173,2088.595,1461.534,2036.559z"/>
			
				<linearGradient id="SVGID_00000164472041288485608470000007116531167910409894_" gradientUnits="userSpaceOnUse" x1="1798.1971" y1="2027.4827" x2="1060.3508" y2="2765.3289">
				<stop  offset="0" style="stop-color:#09005D"/>
				<stop  offset="1" style="stop-color:#1A0F91"/>
			</linearGradient>
			<path style="fill:url(#SVGID_00000164472041288485608470000007116531167910409894_);" d="M1357.47,2135.023
				c19.101-57.544,104.064-98.463,104.064-98.463c86.639,52.036,163.033,15.881,163.033,15.881s17.132,65.485,5.307,126.342
				c-11.824,60.857-86.012,451.967-86.012,451.967c-116.894,23.685-296.676-23.83-296.676-23.83
				C1321.644,2474.727,1338.369,2192.567,1357.47,2135.023z"/>
			
				<linearGradient id="SVGID_00000051342092457147874390000003079785126430880905_" gradientUnits="userSpaceOnUse" x1="1567.2186" y1="2073.0864" x2="1521.5288" y2="1413.1207">
				<stop  offset="0" style="stop-color:#FEBBBA"/>
				<stop  offset="1" style="stop-color:#FF928E"/>
			</linearGradient>
			<path style="fill:url(#SVGID_00000051342092457147874390000003079785126430880905_);" d="M1516.015,1488.968l-38.16,171.407
				c-3.654,15.098,10.11,12.627,25.375,9.749c24.997-4.713,57.216-14.419,67.986-33.871c1.096-1.98,1.644-4.218,1.953-6.459
				l16.394-118.858c1.301-9.43-3.797-18.582-12.499-22.44l-31.636-14.028C1533.247,1469.068,1519.149,1476.018,1516.015,1488.968z"
				/>
			
				<linearGradient id="SVGID_00000134208893372676893230000013640875632742930062_" gradientUnits="userSpaceOnUse" x1="-2616.0872" y1="1945.4302" x2="-2425.8513" y2="1945.4302" gradientTransform="matrix(-1 0 0 1 -1165.4333 0)">
				<stop  offset="0" style="stop-color:#FEBBBA"/>
				<stop  offset="1" style="stop-color:#FF928E"/>
			</linearGradient>
			<path style="fill:url(#SVGID_00000134208893372676893230000013640875632742930062_);" d="M1389.567,1725.185
				c0,0-266.338,190.551-34.063,390.78c0,0,8.857,10.02,26.28,15.228c8.796,2.629,34.817,22.316,48.01,32.581
				c4.241,3.3,10.369,2.177,13.22-2.378h0c2.234-3.569,2.497-8.03,0.697-11.837l-32.973-69.724
				c-9.157-8.545-23.172-9.152-33.033-1.429l0,0c-6.29,4.926-15.505,2.863-19.026-4.309
				c-17.955-36.571-51.86-144.127,86.911-265.662c5.217-4.569,6.536-12.125,3.334-18.276
				C1439.175,1771.429,1416.876,1734.234,1389.567,1725.185z"/>
			<g>
				
					<linearGradient id="SVGID_00000141449942153482609470000005606055692101192353_" gradientUnits="userSpaceOnUse" x1="-2835.8528" y1="1161.4513" x2="-2585.9792" y2="716.7604" gradientTransform="matrix(-0.9809 -0.1943 -0.1943 0.9809 -936.3432 -99.2406)">
					<stop  offset="0" style="stop-color:#FEBBBA"/>
					<stop  offset="1" style="stop-color:#FF928E"/>
				</linearGradient>
				<path style="fill:url(#SVGID_00000141449942153482609470000005606055692101192353_);" d="M1589.106,1332.713
					c0,0,40.626,27.5,58.082,97.533s-10.912,95.154-39.992,93.614c-29.08-1.539-71.243-10.532-107.776-60.774
					C1462.888,1412.844,1535.87,1299.11,1589.106,1332.713z"/>
				
					<linearGradient id="SVGID_00000021817270127385557400000014270555220712514996_" gradientUnits="userSpaceOnUse" x1="-2782.1152" y1="774.1963" x2="-2657.1787" y2="1087.5969" gradientTransform="matrix(-0.9809 -0.1943 -0.1943 0.9809 -936.3432 -99.2406)">
					<stop  offset="0" style="stop-color:#09005D"/>
					<stop  offset="1" style="stop-color:#1A0F91"/>
				</linearGradient>
				<path style="fill:url(#SVGID_00000021817270127385557400000014270555220712514996_);" d="M1536.261,1434.839
					c0,0-14.885-100.351,68.431-85.001l16.847,17.539c0,0,40.781-45.927-4.349-80.643c-45.13-34.717-107.756-25.826-142.405,37.376
					c-34.648,63.202-47.223,107.613-18.182,146.887c29.041,39.273,50.886,5.59,50.886,5.59s-13.319-33.991-2.268-48.577
					c11.051-14.586,25.309,8.482,25.309,8.482L1536.261,1434.839z"/>
				
					<linearGradient id="SVGID_00000032635503051235845760000006615254852031497105_" gradientUnits="userSpaceOnUse" x1="-2782.665" y1="1191.3413" x2="-2532.7917" y2="746.6508" gradientTransform="matrix(-0.9809 -0.1943 -0.1943 0.9809 -936.3432 -99.2406)">
					<stop  offset="0" style="stop-color:#FEBBBA"/>
					<stop  offset="1" style="stop-color:#FF928E"/>
				</linearGradient>
				<path style="fill:url(#SVGID_00000032635503051235845760000006615254852031497105_);" d="M1524.874,1443.433
					c0,0-7.349-51.63-33.718-36.87c-26.368,14.759,9.503,48.229,23.886,59.617L1524.874,1443.433z"/>
			</g>
			<g>
				
					<linearGradient id="SVGID_00000102517776713570069600000000183593198104833935_" gradientUnits="userSpaceOnUse" x1="-3074.9719" y1="930.3492" x2="-2844.1716" y2="1455.4717" gradientTransform="matrix(-0.9776 -0.2106 -0.2106 0.9776 -915.0133 -113.5247)">
					<stop  offset="0" style="stop-color:#FEBBBA"/>
					<stop  offset="1" style="stop-color:#FF928E"/>
				</linearGradient>
				<path style="fill:url(#SVGID_00000102517776713570069600000000183593198104833935_);" d="M1992.337,1336.128
					c0.563,6.066-21.995,10.258-29.174-15.602c1.973-11.228,5.479-60.393,14.087-68.032
					c45.849-40.682,127.606-86.446,127.606-86.446c9.144,13.96-2.848,23.155-2.848,23.155l-40.812,27.542
					c4.257,14.101,10.47,26.567,11.173,42.665c0.532,12.191-3.971,24.126-12.063,33.373c-8.122,9.281-19.056,21.263-28.912,30.36
					C2012.738,1340.364,1992.337,1336.128,1992.337,1336.128z"/>
				
					<linearGradient id="SVGID_00000183939962594469829420000003835836557215508883_" gradientUnits="userSpaceOnUse" x1="1987.9395" y1="1274.0912" x2="2050.0945" y2="1274.0912">
					<stop  offset="0" style="stop-color:#FEBBBA"/>
					<stop  offset="1" style="stop-color:#FF928E"/>
				</linearGradient>
				<path style="fill:url(#SVGID_00000183939962594469829420000003835836557215508883_);" d="M2014.513,1316.084l-6.244-2.564
					c0.829-2.02,20.415-49.611,29.886-59.51c3.594-3.758,5.336-6.975,5.177-9.567c-0.087-1.401-0.776-2.787-2.094-4.2
					l-33.027,17.658l-14.585,22.84l-5.688-3.632l15.535-24.327l38.681-20.682l1.742,1.422c3.916,3.196,5.934,6.633,6.174,10.508
					c0.284,4.612-2.018,9.403-7.036,14.648C2035.901,1266.132,2020.028,1302.643,2014.513,1316.084z"/>
			</g>
		</g>
	</g>
</g>
</svg>
